<svg xmlns="http://www.w3.org/2000/svg" width="1120" height="640" viewBox="0 0 1120 640" role="img" aria-labelledby="title desc">
  <title id="title">FoodOps dashboard preview</title>
  <desc id="desc">A stylized screenshot preview of the FoodOps operations dashboard.</desc>
  <rect width="1120" height="640" fill="#e2e8f0"/>
  <g font-family="Inter, Arial, sans-serif">
    <rect x="48" y="44" width="1024" height="552" rx="18" fill="#ffffff"/>
    <rect x="48" y="44" width="190" height="552" rx="18" fill="#0f172a"/>
    <text x="78" y="92" font-size="20" font-weight="800" fill="#ffffff">FoodOps</text>
    <rect x="76" y="132" width="132" height="34" rx="8" fill="#134e4a"/>
    <text x="96" y="154" font-size="13" fill="#ccfbf1">Dashboard</text>
    <text x="96" y="204" font-size="13" fill="#cbd5e1">Alerts</text>
    <text x="96" y="250" font-size="13" fill="#cbd5e1">Tasks</text>
    <text x="96" y="296" font-size="13" fill="#cbd5e1">Imports</text>
    <text x="96" y="342" font-size="13" fill="#cbd5e1">System</text>
    <rect x="238" y="44" width="834" height="552" rx="0" fill="#f8fafc"/>
    <text x="280" y="96" font-size="26" font-weight="800" fill="#0f172a">Operations Dashboard</text>
    <text x="280" y="123" font-size="14" fill="#64748b">Daily store exceptions, tasks, and feedback status.</text>
    <g transform="translate(280 158)">
      <rect width="172" height="106" rx="12" fill="#ffffff" stroke="#e2e8f0"/>
      <text x="22" y="34" font-size="13" fill="#64748b">Sales today</text>
      <text x="22" y="76" font-size="30" font-weight="800" fill="#0f766e">¥86.4k</text>
    </g>
    <g transform="translate(474 158)">
      <rect width="172" height="106" rx="12" fill="#ffffff" stroke="#e2e8f0"/>
      <text x="22" y="34" font-size="13" fill="#64748b">Open alerts</text>
      <text x="22" y="76" font-size="30" font-weight="800" fill="#b45309">38</text>
    </g>
    <g transform="translate(668 158)">
      <rect width="172" height="106" rx="12" fill="#ffffff" stroke="#e2e8f0"/>
      <text x="22" y="34" font-size="13" fill="#64748b">Task completion</text>
      <text x="22" y="76" font-size="30" font-weight="800" fill="#2563eb">81%</text>
    </g>
    <g transform="translate(862 158)">
      <rect width="172" height="106" rx="12" fill="#ffffff" stroke="#e2e8f0"/>
      <text x="22" y="34" font-size="13" fill="#64748b">Imported rows</text>
      <text x="22" y="76" font-size="30" font-weight="800" fill="#334155">12.8k</text>
    </g>
    <g transform="translate(280 296)">
      <rect width="470" height="240" rx="12" fill="#ffffff" stroke="#e2e8f0"/>
      <text x="24" y="38" font-size="16" font-weight="800" fill="#0f172a">Alert trend</text>
      <path d="M36 188 L110 138 L184 154 L258 90 L332 116 L416 70" fill="none" stroke="#0f766e" stroke-width="5" stroke-linecap="round" stroke-linejoin="round"/>
      <path d="M36 202 H430" stroke="#e2e8f0"/>
      <path d="M36 154 H430" stroke="#e2e8f0"/>
      <path d="M36 106 H430" stroke="#e2e8f0"/>
      <circle cx="258" cy="90" r="7" fill="#0f766e"/>
      <circle cx="416" cy="70" r="7" fill="#0f766e"/>
    </g>
    <g transform="translate(774 296)">
      <rect width="260" height="240" rx="12" fill="#ffffff" stroke="#e2e8f0"/>
      <text x="24" y="38" font-size="16" font-weight="800" fill="#0f172a">Priority tasks</text>
      <rect x="24" y="62" width="212" height="42" rx="8" fill="#fff7ed"/>
      <text x="40" y="88" font-size="13" fill="#9a3412">Low inventory review</text>
      <rect x="24" y="118" width="212" height="42" rx="8" fill="#eff6ff"/>
      <text x="40" y="144" font-size="13" fill="#1d4ed8">Store feedback pending</text>
      <rect x="24" y="174" width="212" height="42" rx="8" fill="#f0fdf4"/>
      <text x="40" y="200" font-size="13" fill="#15803d">Resolved exceptions</text>
    </g>
  </g>
</svg>
