<svg xmlns="http://www.w3.org/2000/svg" width="1280" height="420" viewBox="0 0 1280 420" role="img" aria-labelledby="title desc">
  <title id="title">FoodOps Community banner</title>
  <desc id="desc">A product banner showing the FoodOps Community local operations loop.</desc>
  <defs>
    <linearGradient id="bg" x1="0" x2="1" y1="0" y2="1">
      <stop offset="0" stop-color="#0f766e"/>
      <stop offset="0.55" stop-color="#155e75"/>
      <stop offset="1" stop-color="#1f2937"/>
    </linearGradient>
    <filter id="shadow" x="-20%" y="-20%" width="140%" height="140%">
      <feDropShadow dx="0" dy="16" stdDeviation="18" flood-color="#0f172a" flood-opacity="0.22"/>
    </filter>
  </defs>
  <rect width="1280" height="420" rx="0" fill="url(#bg)"/>
  <path d="M0 320 C170 270 290 375 470 318 C650 260 760 250 930 306 C1095 360 1180 328 1280 290 L1280 420 L0 420 Z" fill="#ffffff" opacity="0.1"/>
  <g transform="translate(82 74)">
    <rect x="0" y="0" width="520" height="272" rx="18" fill="#f8fafc" filter="url(#shadow)"/>
    <rect x="28" y="28" width="464" height="44" rx="8" fill="#e5f6f4"/>
    <circle cx="54" cy="50" r="9" fill="#0f766e"/>
    <rect x="76" y="42" width="155" height="16" rx="8" fill="#0f766e"/>
    <rect x="360" y="39" width="104" height="22" rx="11" fill="#ccfbf1"/>
    <g transform="translate(28 100)">
      <rect width="132" height="110" rx="12" fill="#ffffff" stroke="#dbe4e8"/>
      <text x="18" y="34" font-family="Inter, Arial, sans-serif" font-size="15" fill="#334155">Imported rows</text>
      <text x="18" y="76" font-family="Inter, Arial, sans-serif" font-size="32" font-weight="700" fill="#0f766e">12.8k</text>
    </g>
    <g transform="translate(184 100)">
      <rect width="132" height="110" rx="12" fill="#ffffff" stroke="#dbe4e8"/>
      <text x="18" y="34" font-family="Inter, Arial, sans-serif" font-size="15" fill="#334155">Open alerts</text>
      <text x="18" y="76" font-family="Inter, Arial, sans-serif" font-size="32" font-weight="700" fill="#b45309">38</text>
    </g>
    <g transform="translate(340 100)">
      <rect width="132" height="110" rx="12" fill="#ffffff" stroke="#dbe4e8"/>
      <text x="18" y="34" font-family="Inter, Arial, sans-serif" font-size="15" fill="#334155">Task done</text>
      <text x="18" y="76" font-family="Inter, Arial, sans-serif" font-size="32" font-weight="700" fill="#2563eb">81%</text>
    </g>
    <rect x="28" y="238" width="464" height="1" fill="#e2e8f0"/>
  </g>
  <g transform="translate(690 96)">
    <text x="0" y="0" font-family="Inter, Arial, sans-serif" font-size="54" font-weight="800" fill="#ffffff">FoodOps Community</text>
    <text x="0" y="52" font-family="Inter, Arial, sans-serif" font-size="22" fill="#d9fffb">Open-source local operations loop for food service teams</text>
    <g transform="translate(0 96)">
      <rect x="0" y="0" width="138" height="42" rx="21" fill="#ecfeff"/>
      <text x="25" y="27" font-family="Inter, Arial, sans-serif" font-size="15" font-weight="700" fill="#155e75">FastAPI</text>
      <rect x="156" y="0" width="132" height="42" rx="21" fill="#ecfeff"/>
      <text x="183" y="27" font-family="Inter, Arial, sans-serif" font-size="15" font-weight="700" fill="#155e75">Next.js</text>
      <rect x="306" y="0" width="172" height="42" rx="21" fill="#ecfeff"/>
      <text x="331" y="27" font-family="Inter, Arial, sans-serif" font-size="15" font-weight="700" fill="#155e75">PostgreSQL</text>
    </g>
    <g transform="translate(0 178)">
      <circle cx="20" cy="20" r="20" fill="#99f6e4"/>
      <circle cx="124" cy="20" r="20" fill="#bae6fd"/>
      <circle cx="228" cy="20" r="20" fill="#fde68a"/>
      <circle cx="332" cy="20" r="20" fill="#c7d2fe"/>
      <path d="M42 20 H102 M146 20 H206 M250 20 H310" stroke="#e0f2fe" stroke-width="5" stroke-linecap="round"/>
      <text x="0" y="64" font-family="Inter, Arial, sans-serif" font-size="14" fill="#e6fffb">Import</text>
      <text x="96" y="64" font-family="Inter, Arial, sans-serif" font-size="14" fill="#e6fffb">Alert</text>
      <text x="198" y="64" font-family="Inter, Arial, sans-serif" font-size="14" fill="#e6fffb">Task</text>
      <text x="300" y="64" font-family="Inter, Arial, sans-serif" font-size="14" fill="#e6fffb">Audit</text>
    </g>
  </g>
</svg>
